<?xml version="1.0" encoding="utf-8"?>
<svg viewBox="0 0 500 500" xmlns="http://www.w3.org/2000/svg">
  <ellipse style="stroke: rgb(0, 0, 0); fill: rgb(255, 255, 255);" cx="302.934" cy="260.581" rx="196.395" ry="196.395"/>
  <path d="M 62.535 135.694 C 53.805 135.704 46.731 143.074 46.721 152.167 L 46.721 331.249 C 46.731 340.342 53.805 347.711 62.535 347.721 L 418.885 347.721 C 427.615 347.711 434.689 340.342 434.699 331.249 L 434.699 152.167 C 434.689 143.074 427.615 135.704 418.885 135.694 L 62.535 135.694 Z" fill="#fff" style=""/>
  <path d="M 418.885 348.364 L 62.535 348.364 C 53.464 348.353 46.114 340.696 46.104 331.249 L 46.104 152.167 C 46.114 142.719 53.464 135.063 62.535 135.052 L 418.885 135.052 C 427.955 135.063 435.305 142.719 435.315 152.167 L 435.315 331.249 C 435.305 340.696 427.955 348.353 418.885 348.364 Z M 62.535 136.337 C 54.146 136.347 47.347 143.428 47.338 152.167 L 47.338 331.249 C 47.347 339.987 54.146 347.069 62.535 347.079 L 418.885 347.079 C 427.274 347.069 434.073 339.987 434.082 331.249 L 434.082 152.167 C 434.073 143.428 427.274 136.347 418.885 136.337 L 62.535 136.337 Z" fill="#3f3d56" style=""/>
  <ellipse cx="472.698" cy="572.889" rx="1.303" ry="4.778" transform="matrix(0.03806200250983238, -0.9992749691009523, 0.9991520643234254, 0.041294001042842865, -429.8125, 786.8341064453125)" fill="#e6e6e6" style=""/>
  <ellipse cx="522.006" cy="570.279" rx="1.303" ry="4.778" transform="matrix(0.038057003170251846, -0.9992759823799134, 0.9991530179977418, 0.04128799960017204, -398.6670227050781, 834.5380249023438)" fill="#3f3d56" style=""/>
  <ellipse cx="453.755" cy="557.676" rx="1.303" ry="4.778" transform="matrix(0.03806200250983238, -0.9992749691009523, 0.9991520643234254, 0.041294001042842865, -425.5758361816406, 758.758544921875)" fill="#ff6584" style=""/>
  <ellipse cx="434.258" cy="552.036" rx="1.169" ry="2.126" transform="matrix(0.10875900089740755, -0.9940680265426637, 0.9930690526962281, 0.11788699775934221, -458.5667724609375, 691.3396606445312)" fill="#e6e6e6" style=""/>
  <ellipse cx="422.88" cy="540.383" rx="1.169" ry="2.126" transform="matrix(0.10875900089740755, -0.9940680265426637, 0.9930690526962281, 0.11788699775934221, -452.77532958984375, 673.915771484375)" fill="#3f3d56" style=""/>
  <ellipse cx="487.181" cy="560.224" rx="1.169" ry="2.126" transform="matrix(0.10875900089740755, -0.9940680265426637, 0.9930690526962281, 0.11788699775934221, -439.8105163574219, 748.2447509765625)" fill="#e6e6e6" style=""/>
  <ellipse cx="464.617" cy="565.183" rx="1.169" ry="2.126" transform="matrix(0.10875900089740755, -0.9940680265426637, 0.9930690526962281, 0.11788699775934221, -456.198974609375, 728.415771484375)" fill="#ff6584" style=""/>
  <ellipse cx="501.114" cy="573.17" rx="1.169" ry="2.126" transform="matrix(0.10875900089740755, -0.9940680265426637, 0.9930690526962281, 0.11788699775934221, -445.588134765625, 768.8867797851562)" fill="#3f3d56" style=""/>
  <path d="M -22.015 311.999 C -22.016 312.422 -21.687 312.765 -21.281 312.764 L 499.491 312.764 C 500.056 312.764 500.409 312.126 500.127 311.617 C 499.996 311.38 499.754 311.234 499.491 311.234 L -21.281 311.234 C -21.687 311.233 -22.016 311.576 -22.015 311.999 Z" fill="#ccc" style=""/>
  <path d="M 155.991 298.49 C 154.659 298.555 153.761 297.092 154.373 295.859 C 154.466 295.674 154.589 295.506 154.736 295.364 L 154.855 294.872 C 154.838 294.833 154.823 294.794 154.807 294.755 C 153.412 291.321 148.97 290.749 146.814 293.725 C 146.577 294.052 146.38 294.409 146.229 294.788 C 144.826 298.308 143.04 301.833 142.6 305.555 C 142.406 307.2 142.489 308.867 142.842 310.483 C 139.547 302.997 137.835 294.859 137.824 286.621 C 137.824 284.555 137.934 282.489 138.155 280.435 C 138.338 278.752 138.59 277.08 138.915 275.42 C 140.68 266.413 144.472 257.971 149.978 250.787 C 152.644 249.273 154.799 246.944 156.154 244.114 C 156.645 243.097 156.992 242.01 157.183 240.889 C 156.883 240.931 156.051 236.162 156.277 235.868 C 155.858 235.207 155.108 234.877 154.651 234.232 C 152.375 231.018 149.24 231.579 147.602 235.946 C 144.106 237.784 144.073 240.833 146.218 243.765 C 147.583 245.63 147.77 248.154 148.969 250.151 C 148.845 250.315 148.716 250.475 148.593 250.639 C 146.341 253.656 144.378 256.895 142.733 260.311 C 143.133 256.484 142.655 252.614 141.339 249.017 C 140.005 245.665 137.504 242.841 135.303 239.944 C 132.658 236.463 127.234 237.982 126.769 242.394 C 126.764 242.436 126.76 242.479 126.756 242.523 C 127.083 242.714 127.402 242.918 127.716 243.134 C 129.219 244.181 129.072 246.53 127.45 247.363 C 127.235 247.474 127.005 247.548 126.769 247.587 L 126.721 247.594 C 126.838 248.822 127.043 250.039 127.336 251.234 C 124.512 262.614 130.611 266.758 139.318 266.944 C 139.51 267.046 139.698 267.149 139.89 267.247 C 138.236 272.128 137.2 277.211 136.805 282.371 C 136.581 285.415 136.594 288.473 136.844 291.514 L 136.829 291.406 C 136.198 288.024 134.466 284.972 131.925 282.767 C 128.151 279.537 122.819 278.348 118.748 275.752 C 117.002 274.584 114.697 275.823 114.599 277.983 C 114.591 278.151 114.598 278.319 114.62 278.484 C 114.624 278.522 114.63 278.56 114.636 278.598 C 115.242 278.855 115.834 279.152 116.405 279.486 C 116.732 279.678 117.052 279.881 117.366 280.097 C 118.869 281.144 118.722 283.493 117.1 284.326 C 116.886 284.436 116.655 284.512 116.419 284.55 L 116.37 284.557 C 116.336 284.563 116.306 284.568 116.272 284.573 C 117.309 287.152 118.765 289.526 120.575 291.591 C 122.341 301.524 129.927 302.467 138.041 299.574 L 138.046 299.574 C 138.937 303.605 140.227 307.527 141.895 311.279 L 155.646 311.279 C 155.695 311.12 155.74 310.956 155.784 310.796 C 154.511 310.88 153.234 310.801 151.979 310.56 C 153 309.256 154.02 307.942 155.04 306.638 C 155.063 306.613 155.084 306.588 155.104 306.562 C 155.622 305.894 156.144 305.231 156.661 304.563 L 156.662 304.563 C 156.689 302.518 156.463 300.477 155.992 298.491 L 155.991 298.49 Z" fill="#f2f2f2" style=""/>
  <path d="M 87.347 290.543 C 85.188 290.647 83.73 288.277 84.724 286.278 C 84.874 285.976 85.073 285.705 85.313 285.475 C 85.382 285.181 85.433 284.97 85.505 284.678 C 85.479 284.614 85.453 284.55 85.428 284.486 C 83.165 278.918 75.964 277.99 72.467 282.816 C 72.082 283.346 71.763 283.926 71.519 284.54 C 69.245 290.247 66.349 295.964 65.635 301.998 C 65.321 304.664 65.453 307.369 66.027 309.989 C 60.684 297.848 57.909 284.654 57.891 271.299 C 57.891 267.947 58.07 264.599 58.427 261.268 C 58.723 258.538 59.133 255.827 59.658 253.135 C 62.521 238.532 68.67 224.844 77.599 213.196 C 81.919 210.741 85.414 206.964 87.611 202.375 C 88.408 200.726 88.97 198.965 89.281 197.148 C 88.794 197.214 87.443 189.482 87.811 189.007 C 87.132 187.933 85.916 187.399 85.174 186.351 C 81.484 181.141 76.401 182.05 73.746 189.132 C 68.077 192.112 68.022 197.055 71.501 201.809 C 73.714 204.834 74.018 208.926 75.96 212.165 C 75.76 212.431 75.552 212.689 75.352 212.955 C 71.701 217.847 68.517 223.1 65.849 228.638 C 66.498 222.433 65.724 216.157 63.59 210.325 C 61.427 204.89 57.372 200.312 53.802 195.614 C 49.514 189.969 40.72 192.432 39.965 199.587 C 39.957 199.657 39.951 199.726 39.943 199.796 C 40.474 200.107 40.992 200.437 41.501 200.787 C 43.939 202.484 43.699 206.293 41.069 207.644 C 40.721 207.823 40.349 207.945 39.965 208.007 L 39.887 208.019 C 40.076 210.01 40.41 211.983 40.886 213.921 C 36.306 232.371 46.194 239.091 60.313 239.392 C 60.625 239.559 60.928 239.726 61.24 239.884 C 58.559 247.797 56.877 256.041 56.238 264.406 C 55.875 269.342 55.897 274.299 56.302 279.231 L 56.278 279.056 C 55.255 273.572 52.447 268.624 48.326 265.047 C 42.207 259.812 33.563 257.884 26.961 253.675 C 23.784 251.649 19.711 254.267 20.266 258.105 C 20.275 258.165 20.284 258.227 20.293 258.289 C 21.277 258.706 22.235 259.187 23.162 259.728 C 23.693 260.039 24.211 260.371 24.719 260.721 C 27.156 262.417 26.917 266.226 24.288 267.577 C 23.94 267.756 23.567 267.878 23.183 267.94 L 23.105 267.952 C 23.05 267.961 23.002 267.969 22.946 267.977 C 24.628 272.159 26.987 276.008 29.922 279.356 C 32.786 295.462 45.086 296.991 58.243 292.301 L 58.251 292.301 C 59.695 298.834 61.787 305.194 64.492 311.279 L 86.788 311.279 C 86.868 311.021 86.94 310.754 87.012 310.497 C 84.949 310.632 82.877 310.503 80.842 310.113 C 82.497 307.999 84.151 305.868 85.805 303.755 C 85.842 303.715 85.876 303.673 85.909 303.629 C 86.748 302.547 87.595 301.473 88.435 300.391 L 88.435 300.39 C 88.479 297.073 88.114 293.763 87.348 290.544 L 87.347 290.543 Z" fill="#f2f2f2" style=""/>
  <path d="M 392.479 110.849 C 390.982 98.898 364.519 99.661 362.021 110.904 C 360.695 110.04 357.324 110.638 356.066 111.631 C 354.808 112.623 354.003 114.082 353.213 115.498 C 352.136 117.466 351.019 119.503 350.781 121.76 C 350.532 124.011 351.382 126.562 353.341 127.564 C 354.896 128.363 358.315 127.824 360.025 127.466 C 361.217 127.219 362.218 127.002 363.068 126.79 C 363.353 125.391 363.156 123.932 362.511 122.669 C 363.902 122.956 365.095 123.876 365.767 125.177 C 365.901 125.446 370.749 163.461 370.749 163.461 C 372.073 163.627 373.412 163.662 374.743 163.564 C 375.569 158.886 375.72 154.105 375.189 149.381 C 376.593 152.08 377.704 154.936 378.501 157.893 C 378.958 159.546 379.332 161.223 379.625 162.917 C 391.163 160.67 406.76 152.929 409.605 139.784 C 409.591 139.742 409.574 139.7 409.559 139.658 C 409.043 138.325 410.105 136.909 411.471 137.111 C 411.867 137.169 412.232 137.362 412.51 137.661 C 412.857 138.034 413.168 138.353 413.429 138.599 C 412.418 130.206 406.306 122.652 392.479 110.849 Z" fill="#2f2e41" style=""/>
  <polygon points="224.007 403.527 217.538 400.004 227.796 371.757 237.343 376.957 224.007 403.527" fill="#a0616a" style=""/>
  <path d="M 197.905 403.186 C 197.072 404.85 197.688 406.903 199.284 407.774 L 212.147 414.779 L 216.755 411.21 L 215.226 416.452 L 220.078 419.099 L 227.263 401.326 L 225.624 400.303 L 218.952 396.116 L 216.798 394.771 L 214.377 399.593 L 200.396 401.388 C 199.332 401.525 198.401 402.197 197.905 403.186 Z" fill="#2f2e41" style=""/>
  <polygon points="217.379 299.54 212.674 293.727 232.442 271.635 239.386 280.215 217.379 299.54" fill="#a0616a" style=""/>
  <path d="M 193.348 288.923 C 191.971 290.134 191.795 292.277 192.955 293.714 L 202.311 305.272 L 207.874 303.789 L 204.552 308.036 L 208.079 312.401 L 221.193 298.788 L 220.05 297.196 L 215.397 290.688 L 213.892 288.592 L 209.899 292.099 L 196.307 288.242 C 195.272 287.95 194.166 288.203 193.348 288.923 Z" fill="#2f2e41" style=""/>
  <path d="M 424.888 277.757 C 424.888 277.757 444.864 322.295 362.139 310.293 C 362.139 310.293 318.066 259.415 319.339 253.293 C 319.339 253.293 300.58 233.438 301.498 233.077 C 302.415 232.715 302.982 231.93 301.466 232.001 C 299.948 232.073 299.948 229.721 299.948 229.721 C 299.948 229.721 266.048 268.016 237.502 287.019 L 227.633 275.454 C 227.633 275.454 231.482 262.913 233.333 262.913 C 235.183 262.913 235.82 263.376 236.118 260.896 C 236.416 258.415 234.943 256.285 236.913 256.065 C 238.883 255.845 279.722 206.129 279.722 206.129 C 279.722 206.129 284.128 189.753 297.59 192.923 C 311.051 196.093 381.002 255.332 381.002 255.332 L 424.888 277.757 Z" fill="#2f2e41" style=""/>
  <path d="M 391.201 311.736 L 281.913 310.792 L 234.418 389.177 L 220.996 381.776 L 223.971 380.468 C 223.971 380.468 223.071 369.573 224.174 366.815 C 225.277 364.057 228.56 364.888 228.56 364.888 L 256.251 298.369 C 260.18 286.22 271.552 278.422 283.818 279.465 C 306.731 275.984 343.925 278.766 382.566 282.181 L 391.201 311.736 Z" fill="#2f2e41" style=""/>
  <path d="M 327.926 178.333 C 332.252 179.023 335.263 183.175 334.719 187.699 C 334.66 188.14 334.564 188.575 334.435 189 L 356.892 206.743 L 352.258 221.78 L 324.018 194.01 C 320.624 192.585 318.579 188.956 319.037 185.175 C 319.612 180.779 323.498 177.702 327.717 178.3 C 327.787 178.31 327.857 178.321 327.926 178.333 Z" fill="#a0616a" style=""/>
  <path d="M 426.995 179.44 L 418.921 202.724 L 387.345 249.203 C 387.345 249.203 387.087 249.087 386.618 248.882 C 383.904 247.661 374.048 243.177 364.777 238.081 C 356.073 233.294 347.876 227.969 346.605 224.306 C 346.469 223.921 346.346 223.548 346.235 223.188 L 346.235 223.182 C 345.644 221.317 345.273 219.384 345.131 217.425 C 345.026 215.915 345.119 215.105 344.922 215.009 C 344.767 214.939 344.447 215.285 343.737 216.069 C 343.687 216.121 343.645 216.172 343.595 216.217 C 341.03 218.896 337.877 218.549 338.649 217.277 C 339.437 215.972 339.025 215.999 337.865 214.636 C 337.001 213.622 334.195 209.651 332.813 207.69 C 332.338 207.016 332.036 206.58 332.036 206.58 L 332.511 205.802 L 333.825 203.656 L 340.073 193.453 L 340.418 192.894 C 340.418 192.894 353.261 195.984 354.969 198.921 C 356.684 201.857 352.384 201.761 356.684 201.857 C 360.983 201.953 365.368 195.862 362.229 201.921 C 359.089 207.973 359.916 210.087 363.802 209.13 C 365.381 208.738 367.879 209.978 370.285 211.584 L 370.285 211.591 C 371.789 212.609 373.24 213.709 374.634 214.887 C 376.12 216.133 377.125 217.078 377.125 217.078 L 401.514 165.536 L 404.216 159.831 C 405.879 156.324 408.827 153.66 412.395 152.442 L 413.24 153.978 C 418.501 162.048 423.103 170.566 426.995 179.44 Z" fill="#6c63ff" style=""/>
  <path d="M 428.346 253.341 C 435.821 255.152 427.869 311.838 418.958 312.015 C 354.192 313.3 373.911 275.45 370.438 271.825 C 366.966 268.196 363.833 270.798 366.966 265.15 C 369.249 261.039 372.635 261.648 372.685 259.342 C 372.708 258.481 372.271 257.221 371.136 255.152 C 366.966 247.545 366.966 245.278 366.966 245.278 C 365.927 242.993 365.191 240.572 364.777 238.081 C 364.1 234.378 364.017 230.583 364.53 226.85 C 365.313 221.375 367.281 216.157 370.285 211.591 L 370.285 211.584 C 370.599 211.096 370.926 210.601 371.271 210.113 C 372.055 209.002 376.398 209.214 376.398 209.214 L 385.65 168.735 L 380.296 152.596 L 405.653 140.221 L 412.395 152.442 L 413.24 153.978 C 418.501 162.049 423.103 170.566 426.995 179.44 C 430.739 188.12 433.817 197.758 433.928 206.142 C 434.224 228.007 430.603 234.509 430.603 234.509 C 430.603 234.509 439.393 241.352 434.995 245.535 C 430.603 249.723 420.87 251.529 428.346 253.341 Z" fill="#6c63ff" style=""/>
  <path d="M 313.47 173.007 L 309.333 176.281 C 307.631 177.637 307.302 180.17 308.598 181.947 L 318.563 195.59 L 324.447 203.638 C 325.745 205.408 328.173 205.75 329.877 204.403 L 334.019 201.125 C 335.714 199.767 336.039 197.24 334.749 195.463 L 334.139 194.622 L 322.068 178.103 L 318.901 173.772 C 317.604 171.998 315.173 171.655 313.47 173.007 Z" fill="#3f3d56" style=""/>
  <path d="M 315.634 172.76 L 311.177 175.998 C 309.51 177.134 309.17 179.53 310.45 181.12 L 316.283 188.442 L 319.392 192.343 L 321.467 194.945 L 326.105 200.767 C 327.463 202.384 329.769 202.683 331.467 201.461 L 334.806 199.034 L 335.917 198.227 C 337.05 197.44 337.619 196.023 337.359 194.631 C 337.248 194.065 337.003 193.537 336.646 193.095 L 322.938 175.89 L 320.995 173.454 C 319.638 171.835 317.33 171.535 315.634 172.76 Z" fill="#6c63ff" style=""/>
  <path d="M 318.482 190.843 C 322.808 191.534 325.819 195.687 325.274 200.21 C 325.214 200.651 325.119 201.086 324.991 201.511 L 347.447 219.254 L 342.813 234.291 L 314.573 206.521 C 311.18 205.096 309.134 201.467 309.593 197.686 C 310.167 193.291 314.053 190.213 318.273 190.811 C 318.342 190.82 318.412 190.832 318.482 190.843 Z" fill="#a0616a" style=""/>
  <path d="M 410.07 164.529 C 418.41 166.298 423.299 175.366 420.409 183.704 L 409.479 215.234 L 377.899 261.716 C 377.899 261.716 340.026 245.053 337.159 236.817 C 334.292 228.581 336.881 225.739 334.292 228.581 C 331.702 231.422 328.419 231.086 329.206 229.785 C 329.991 228.485 329.578 228.513 328.42 227.149 C 327.263 225.787 322.593 219.093 322.593 219.093 L 330.974 205.406 C 330.974 205.406 343.816 208.495 345.528 211.433 C 347.238 214.371 342.938 214.275 347.238 214.371 C 351.539 214.466 355.925 208.374 352.784 214.431 C 349.643 220.488 350.472 222.599 354.358 221.64 C 358.245 220.679 367.678 229.59 367.678 229.59 L 394.774 172.344 C 397.576 166.422 403.859 163.212 410.07 164.529 Z" fill="#6c63ff" style=""/>
  <circle cx="827.928" cy="250.103" r="32.592" transform="matrix(0.43615600466728216, -0.45432001352310186, 0.43615600466728216, 0.45432001352310186, -90.49366760253906, 393.25976562500006)" fill="#a0616a" style=""/>
  <path d="M 403.203 107.93 C 401.706 95.98 375.243 96.742 372.745 107.985 C 371.419 107.122 368.047 107.72 366.79 108.712 C 365.533 109.705 364.727 111.164 363.937 112.58 C 362.861 114.548 355.322 121.203 354.192 119.263 C 351.651 114.896 346.666 124.439 350.491 130.828 C 351.409 132.36 369.138 129.901 370.846 129.543 C 372.039 129.296 369.996 129.755 370.846 129.543 C 371.12 128.157 373.891 120.996 373.235 119.75 C 374.626 120.038 375.819 120.958 376.49 122.258 C 376.624 122.527 381.473 160.542 381.473 160.542 C 382.798 160.708 384.135 160.743 385.466 160.646 C 386.293 155.967 386.443 151.186 385.913 146.461 C 387.317 149.162 388.428 152.017 389.225 154.974 C 389.681 156.628 390.056 158.305 390.348 159.999 C 401.886 157.751 417.484 150.011 420.329 136.866 C 404.771 131.47 417.03 119.734 403.203 107.93 Z" fill="#2f2e41" style=""/>
  <ellipse cx="573.279" cy="306.974" rx="3.375" ry="4.665" transform="matrix(0.13833700120449066, -0.9903849959373475, 0.9887760281562806, 0.14985500276088715, -160.2126007080078, 689.0491333007812)" fill="#e6e6e6" style=""/>
  <ellipse cx="622.45" cy="302.176" rx="3.375" ry="4.665" transform="matrix(0.13833700120449066, -0.9903849959373475, 0.9887760281562806, 0.14985500276088715, -131.9407958984375, 735.3839111328125)" fill="#3f3d56" style=""/>
  <ellipse cx="559.814" cy="267.166" rx="3.375" ry="4.665" transform="matrix(0.13833700120449066, -0.9903849959373475, 0.9887760281562806, 0.14985500276088715, -127.29375457763672, 656.102294921875)" fill="#ff6584" style=""/>
  <ellipse cx="542.604" cy="251.923" rx="3.069" ry="2.049" transform="matrix(0.007260000333189965, -0.9999739527702333, 0.9999690055847169, 0.00787699967622757, -52.15330505371094, 672.517822265625)" fill="#e6e6e6" style=""/>
  <ellipse cx="535.358" cy="221.552" rx="3.069" ry="2.049" transform="matrix(0.007260000333189965, -0.9999739527702333, 0.9999690055847169, 0.00787699967622757, -26.19948387145996, 645.9974975585938)" fill="#3f3d56" style=""/>
  <ellipse cx="591.703" cy="275.004" rx="3.069" ry="2.049" transform="matrix(0.007260000333189965, -0.9999739527702333, 0.9999690055847169, 0.00787699967622757, -45.304325103759766, 736.2633056640625)" fill="#e6e6e6" style=""/>
  <ellipse cx="567.941" cy="286.868" rx="3.069" ry="2.049" transform="matrix(0.007260000333189965, -0.9999739527702333, 0.9999690055847169, 0.00787699967622757, -71.65216064453125, 720.03125)" fill="#ff6584" style=""/>
  <ellipse cx="601.019" cy="308.795" rx="3.069" ry="2.049" transform="matrix(0.007260000333189965, -0.9999739527702333, 0.9999690055847169, 0.00787699967622757, -73.41647338867188, 767.0239868164062)" fill="#3f3d56" style=""/>
  <ellipse cx="716.402" cy="334.832" rx="0.625" ry="1.583" transform="matrix(0.8020650148391725, -0.5972369909286499, 0.56626296043396, 0.8251290321350099, -453.2997741699219, 336.76330566406256)" fill="#3f3d56" style=""/>
  <ellipse cx="713.402" cy="330.832" rx="0.625" ry="1.583" transform="matrix(0.8020650148391725, -0.5972369909286499, 0.56626296043396, 0.8251290321350099, -450.4789733886719, 335.70211791992193)" fill="#3f3d56" style=""/>
</svg>